<svg xmlns="http://www.w3.org/2000/svg" viewBox="0 0 1333.34 1115.76" shape-rendering="geometricPrecision" text-rendering="geometricPrecision" image-rendering="optimizeQuality" fill-rule="evenodd" clip-rule="evenodd"><path d="M323.67 976.76V576.12h180.2c76.4 13.7 152.8 55.12 229.19 103.22h139.97c63.35 3.82 96.53 68.03 34.98 110.22-49.09 35.98-113.84 33.95-180.2 27.99-45.77-2.25-47.78 59.28 0 59.48 16.56 1.28 34.61-2.6 50.35-2.62 82.84-.08 151.08-15.92 192.84-81.36l20.99-48.98 208.2-103.22c104.19-34.31 178.22 74.68 101.48 150.46-150.8 109.72-305.47 200-463.63 272.93-114.89 69.88-229.78 67.51-344.66 0l-169.7-87.47zm783.76-642.02c-2.91-2.02-6.27-2.91-9.63-2.24-3.36.67-6.28 2.46-8.29 5.38l-11.43 16.13c-4.04-1.8-8.29-3.14-12.77-4.26-4.48-1.12-8.74-2.02-13.22-2.69L1048.5 326c-.67-3.59-2.46-6.28-5.15-8.29-2.91-2.02-6.05-2.69-9.63-2.02l-26.44 4.7c-3.36.67-6.05 2.24-8.29 5.15-2.02 2.91-2.91 6.05-2.24 9.63l3.36 19.27c-4.26 1.8-8.29 3.81-12.1 6.28-3.81 2.24-7.62 4.93-10.98 7.62l-17.93-12.32c-2.91-2.02-6.05-2.91-9.41-2.24-3.36.67-6.27 2.46-8.29 5.38l-15.23 21.73c-2.02 2.91-2.91 6.27-2.24 9.63.67 3.58 2.46 6.27 5.37 8.29l16.13 11.43c-1.79 4.03-3.14 8.29-4.26 12.77-1.12 4.48-2.02 8.74-2.69 13.22l-21.06 3.58c-3.59.67-6.28 2.46-8.29 5.15-2.02 2.91-2.69 6.05-2.02 9.63l4.7 26.44c.67 3.36 2.24 6.05 5.15 8.29 2.91 2.02 6.05 2.91 9.64 2.24l19.27-3.36c1.79 4.26 3.81 8.29 6.27 12.1 2.24 3.81 4.93 7.62 7.62 11.2l-12.32 17.7c-2.02 2.91-2.91 6.05-2.24 9.41.67 3.36 2.46 6.27 5.38 8.29l21.96 15.46c2.91 2.02 6.28 2.69 9.63 2.02 3.36-.67 6.28-2.24 8.52-5.15l11.43-16.35c4.04 1.79 8.29 3.14 12.77 4.26 4.48 1.12 8.74 2.02 13.22 2.69l3.58 21.06c.67 3.58 2.46 6.27 5.15 8.29 2.91 2.02 6.05 2.69 9.63 2.02l26.44-4.71c3.36-.67 6.05-2.24 8.29-5.15 2.02-2.91 2.91-6.05 2.24-9.63l-3.36-19.27c4.26-1.79 8.29-3.81 12.1-6.27 3.81-2.24 7.62-4.93 11.2-7.62l17.7 12.32c2.91 2.02 6.05 2.91 9.64 2.24 3.58-.67 6.27-2.46 8.29-5.38l15.46-21.96c2.02-2.91 2.69-6.28 2.02-9.63-.67-3.36-2.24-6.28-5.15-8.52l-16.35-11.2c1.79-4.03 3.14-8.29 4.26-12.77 1.12-4.48 2.02-8.74 2.69-13.22l21.06-3.59c3.59-.67 6.27-2.46 8.29-5.15 2.02-2.91 2.69-6.05 2.02-9.63l-4.7-26.44c-.67-3.36-2.24-6.05-5.15-8.29-2.91-2.02-6.05-2.91-9.64-2.24l-19.27 3.36c-1.79-4.03-3.81-8.06-6.27-12.09-2.24-4.04-4.93-7.62-7.62-10.98l12.32-17.93c2.02-2.91 2.91-6.05 2.24-9.41-.67-3.36-2.46-6.28-5.38-8.29l-21.73-15.24-.67.22zm-76.85 62.29c6.94-1.12 13.89-1.12 20.84.45 6.72 1.57 12.77 4.26 18.37 8.07 5.38 3.81 10.08 8.74 13.89 14.56 3.81 5.83 6.27 12.32 7.39 19.27 1.12 6.94 1.12 13.89-.44 20.84-1.57 6.72-4.26 12.77-8.07 18.37-3.81 5.37-8.74 10.08-14.56 13.89-5.83 3.81-12.32 6.27-19.27 7.39-6.94 1.12-13.89 1.12-20.84-.45-6.72-1.57-12.77-4.26-18.37-8.07-5.38-3.81-10.08-8.74-13.89-14.56-3.81-5.82-6.28-12.32-7.39-19.27-1.12-6.94-1.12-13.89.45-20.84 1.57-6.72 4.26-12.77 8.06-18.37 3.81-5.38 8.74-10.08 14.56-13.89 5.83-3.81 12.32-6.27 19.27-7.39zM827.14 82.9c-1.12-1.12-2.02-1.79-3.13-2.24-.9-.45-2.02-.67-3.36-.67-1.35 0-2.46.22-3.36.67-.9.45-2.02 1.12-2.91 2.02l-.22.22-25.31 25.32c-4.93 4.93-12.77 5.6-18.37 1.57-2.91-1.79-5.83-3.58-9.19-5.37-3.59-1.8-6.95-3.59-10.08-5.15-3.36-1.57-6.94-3.14-10.53-4.48-3.14-1.12-6.72-2.46-10.98-3.81a14.396 14.396 0 01-9.86-13.67V38.55c0-1.34-.22-2.69-.67-3.59-.44-.89-1.12-2.02-2.02-2.69-.89-.89-1.79-1.57-2.69-2.02-.89-.44-2.24-.67-3.58-.67h-48.84c-1.35 0-2.47.23-3.36.45-.9.44-2.02 1.12-3.14 2.24-.9.9-1.57 1.8-1.8 2.69-.44.9-.67 2.24-.67 3.59v35.63c0 7.17-5.15 12.99-11.87 14.34-3.81.9-7.39 1.79-10.53 2.69-3.59 1.12-6.94 2.24-10.53 3.58-3.36 1.35-6.94 2.69-10.31 4.48-3.58 1.57-6.72 3.36-9.86 4.93-5.83 3.13-12.55 2.02-17.03-2.46l-28.01-27.78c-.22-.22-.22-.22-.22-.45-.89-.9-1.79-1.57-2.69-2.02-.9-.45-1.8-.45-3.14-.45-1.35 0-2.46.22-3.36.67-1.12.44-2.02 1.12-3.14 2.24l-34.06 34.28c-1.12 1.12-1.79 2.02-2.24 3.14-.45.9-.67 2.02-.67 3.36 0 1.35.22 2.46.67 3.36.45.9 1.12 2.02 2.02 2.91v.22l25.32 25.32c4.93 4.93 5.6 12.77 1.57 18.37-1.79 2.91-3.59 5.83-5.38 9.19-1.79 3.58-3.58 6.94-5.15 10.08-1.57 3.36-3.13 6.94-4.48 10.53-1.12 3.14-2.46 6.72-3.81 10.98a14.396 14.396 0 01-13.67 9.86h-38.76c-1.35 0-2.69.22-3.59.67-.89.45-1.79 1.12-2.69 1.79-.89.89-1.57 1.79-1.79 2.69-.45.89-.67 2.24-.67 3.58v48.85c0 1.34.22 2.46.45 3.36.45.9 1.12 2.02 2.24 3.14.9.9 1.79 1.57 2.69 1.8.9.44 2.24.67 3.59.67h35.62c7.17 0 13 5.15 14.34 11.88.89 3.81 1.79 7.39 2.69 10.3 1.12 3.59 2.24 7.17 3.58 10.76 1.35 3.36 2.69 6.94 4.48 10.53 1.8 3.81 3.36 7.17 4.93 10.3 2.91 5.83 1.79 12.55-2.69 16.81l-27.78 27.56-.22.22c-.9.89-1.57 1.79-2.02 2.69-.44.89-.44 1.79-.44 3.13 0 1.35.22 2.46.67 3.36.44 1.12 1.12 2.24 2.24 3.14l33.83 34.28c.89.9 2.02 1.57 3.14 2.02 1.12.45 2.24.67 3.58.67 1.35 0 2.69-.22 3.81-.67.89-.45 2.02-1.12 2.91-1.79l25.09-25.54c4.93-5.15 12.77-5.6 18.37-1.79 2.91 1.79 5.83 3.59 9.19 5.38 3.58 1.79 6.94 3.58 10.08 5.15 3.36 1.57 6.95 3.13 10.53 4.48 3.14 1.12 6.72 2.46 10.98 3.81 6.05 2.02 9.86 7.62 9.86 13.67v38.76c0 1.35.22 2.69.67 3.59.44.89 1.12 2.02 1.79 2.69 1.79 1.79 3.81 2.46 6.5 2.46h48.85c1.34 0 2.46-.22 3.36-.45.89-.45 2.02-1.12 3.13-2.24.9-.9 1.57-1.79 1.79-2.69.45-.9.67-2.24.67-3.58v-35.63c0-7.17 5.15-13 11.87-14.34 3.81-.9 7.4-1.8 10.53-2.69 3.59-1.12 6.94-2.24 10.53-3.59 3.36-1.34 6.94-2.69 10.53-4.48 3.81-1.79 7.17-3.36 10.31-4.93 5.82-2.91 12.55-1.79 16.8 2.69l27.56 27.78.22.23c.89.89 1.79 1.57 2.69 2.02.89.44 2.02.44 3.36.44 1.35 0 2.46-.22 3.36-.67.9-.45 1.79-1.12 2.69-2.02.22-.22.44-.44.67-.44l34.06-33.61c.9-.89 1.57-2.02 2.02-3.14.45-1.12.67-2.24.67-3.58 0-1.34-.22-2.69-.67-3.81-.45-.9-1.12-2.02-1.79-2.91l-25.54-25.09c-5.15-4.93-5.6-12.77-1.79-18.37 1.79-2.91 3.58-5.82 5.38-9.19 1.79-3.59 3.58-6.95 5.15-10.08 1.57-3.36 3.14-6.94 4.48-10.53 1.12-3.14 2.46-6.72 3.81-10.98 2.02-6.05 7.62-9.86 13.67-9.86h38.76c1.35 0 2.69-.22 3.59-.67.9-.45 2.02-1.12 2.69-1.8 1.79-1.79 2.46-3.81 2.46-6.5V236.4c0-1.35-.22-2.47-.45-3.36-.45-.9-1.12-2.02-2.24-3.14-.9-.89-1.79-1.57-2.69-1.79-.89-.45-2.24-.67-3.58-.67h-35.63c-7.17 0-13.22-5.37-14.34-12.1-.89-3.14-1.79-6.5-2.69-9.86-1.12-3.36-2.24-6.94-3.81-10.76 0-.22-.22-.44-.22-.67-1.34-3.59-2.69-6.72-4.03-9.86-1.57-3.36-3.14-6.72-4.93-9.86-3.14-5.83-2.02-12.55 2.46-17.03l27.78-28.01c0-.22.22-.22.44-.22.9-.9 1.57-1.79 2.02-2.69.44-.9.44-1.79.44-3.14 0-1.34-.22-2.46-.67-3.36-.45-1.12-1.12-2.02-2.24-3.13l-34.28-34.06.22.22zm8.07-28.9c4.7 2.02 8.74 4.7 12.32 8.29l34.28 34.06h.22c3.59 3.58 6.28 7.62 8.29 12.1 2.02 4.7 2.91 9.41 2.91 14.56s-1.12 10.08-2.91 14.56c-2.02 4.48-4.7 8.52-8.52 11.88l-20.17 20.39c.22.67.67 1.35.9 2.02 1.79 3.81 3.36 7.84 4.93 11.65 0 .22.22.45.22.67 1.57 3.81 2.91 8.06 4.26 12.54l.45 1.57h24.65c5.15 0 10.08.9 14.56 2.91 4.48 1.79 8.52 4.7 12.1 8.29l.22.22c3.59 3.59 6.28 7.62 8.07 12.1 1.8 4.48 2.91 9.41 2.91 14.34v48.84c0 10.53-3.58 19.49-10.98 26.89-3.58 3.59-7.84 6.5-12.32 8.29-4.48 1.79-9.41 2.69-14.56 2.69h-28.68c-.22.67-.67 1.57-.9 2.24-1.57 4.04-3.36 8.07-5.15 12.1-2.02 4.26-3.81 8.29-5.83 11.87l-.67 1.35 17.48 17.25.67.67c3.59 3.58 6.05 7.84 7.84 12.32 1.8 4.48 2.69 9.19 2.69 14.34 0 4.93-.89 9.63-2.69 14.11-1.79 4.48-4.26 8.52-7.84 12.32l-.44.45-34.28 34.06c-3.58 3.81-7.62 6.5-12.1 8.51-4.48 2.02-9.41 2.91-14.79 2.91-5.15 0-10.08-1.12-14.79-2.91-4.7-2.02-8.74-4.93-12.1-8.51l-19.94-20.17c-.67.45-1.35.67-2.24.9-3.81 1.57-7.84 3.36-12.1 4.93-4.04 1.57-8.29 2.91-12.55 4.26-.67.22-1.12.44-1.8.44v24.43c0 5.15-.89 10.08-2.91 14.56-1.8 4.48-4.7 8.51-8.29 12.1l-.22.22c-3.59 3.58-7.62 6.27-12.1 8.06-4.48 1.8-9.41 2.91-14.34 2.91h-48.85c-10.53 0-19.49-3.58-26.89-10.98-3.59-3.59-6.5-7.84-8.29-12.32-1.79-4.48-2.69-9.41-2.69-14.56v-28.68c-.67-.22-1.57-.67-2.24-.9-4.03-1.57-8.07-3.36-12.1-5.15-4.26-2.02-8.29-3.81-11.87-5.83l-1.35-.67-17.25 17.48-.67.67c-3.58 3.59-7.84 6.05-12.32 7.84s-9.19 2.69-14.34 2.69c-4.93 0-9.63-.9-14.11-2.69-4.48-1.8-8.52-4.26-12.32-7.84l-.45-.45-34.28-34.73c-3.59-3.59-6.28-7.62-8.29-12.1-2.02-4.7-2.91-9.41-2.91-14.56s1.12-10.08 2.91-14.57c2.02-4.48 4.93-8.51 8.52-12.09l20.16-19.94c-.44-.67-.67-1.34-.89-2.24-1.57-3.81-3.36-7.84-4.93-12.1-1.57-4.26-3.14-8.29-4.26-12.55l-.45-1.79h-24.42c-5.15 0-10.09-.9-14.57-2.91-4.48-1.79-8.51-4.7-12.1-8.29l-.22-.22c-3.58-3.59-6.27-7.62-8.07-12.1-1.79-4.48-2.91-9.41-2.91-14.34v-48.84c0-5.15.89-9.86 2.69-14.57 1.79-4.48 4.7-8.51 8.29-12.32 3.59-3.58 7.84-6.5 12.32-8.29 4.48-1.8 9.41-2.69 14.56-2.69h28.68c.22-.67.67-1.57.9-2.24 1.57-4.04 3.36-8.07 5.15-12.1 2.02-4.26 3.81-8.29 5.82-11.88l.67-1.34-17.25-17.48c-3.59-3.59-6.5-7.62-8.29-12.32-2.02-4.7-2.91-9.64-2.91-14.56 0-5.15.9-9.86 2.91-14.57 2.02-4.7 4.7-8.74 8.29-12.32l34.06-34.28v-.22c3.59-3.58 7.62-6.27 12.1-8.29 4.7-2.02 9.41-2.91 14.56-2.91s10.08 1.12 14.57 2.91c4.48 2.02 8.51 4.7 11.87 8.51l20.39 20.17c.67-.22 1.34-.67 1.79-.89 3.81-1.8 7.84-3.36 12.1-5.15 4.03-1.57 8.29-2.91 12.55-4.26.67-.22 1.12-.45 1.8-.45V37.86c0-5.15.89-10.08 2.91-14.56 1.79-4.48 4.7-8.51 8.29-12.1l.22-.22c3.59-3.59 7.62-6.28 12.1-8.07C652.14 1.12 657.07 0 662 0h48.85c5.15 0 9.86.89 14.56 2.69 4.7 1.8 8.74 4.7 12.32 8.29 3.58 3.58 6.5 7.84 8.29 12.32 1.79 4.48 2.69 9.41 2.69 14.56v28.68c.67.22 1.57.67 2.24.89 4.03 1.57 8.06 3.36 12.1 5.15 4.26 2.02 8.29 3.81 11.87 5.83l1.35.67 17.47-17.25c3.59-3.59 7.62-6.5 12.32-8.29 4.71-2.02 9.64-2.91 14.57-2.91 5.15 0 9.86.9 14.56 2.91v.45zm-154.82 90.74c7.39 0 14.79.67 21.96 2.24 6.94 1.34 13.89 3.58 20.84 6.5 6.5 2.91 12.77 6.27 18.6 10.08 5.82 3.81 11.2 8.29 16.13 13.22 4.93 4.93 9.41 10.3 13.22 16.35 4.03 5.83 7.39 12.1 10.08 18.59.23.45.23.9.45 1.12 2.69 6.5 4.7 13.22 6.05 19.72 1.34 7.17 2.24 14.56 2.24 21.96 0 7.39-.67 14.79-2.24 21.96-1.35 6.95-3.58 13.89-6.5 20.84-2.91 6.5-6.27 12.77-10.08 18.6-4.04 5.82-8.29 11.2-13.22 16.35-4.93 4.93-10.31 9.41-16.35 13.22-5.83 4.03-12.1 7.39-18.6 10.08-.45.22-.9.22-1.12.45-6.5 2.69-13.22 4.7-19.72 6.05-7.17 1.34-14.56 2.24-21.96 2.24-7.39 0-14.79-.67-21.96-2.24-6.94-1.35-13.89-3.58-20.84-6.5-6.5-2.91-12.77-6.28-18.59-10.08-5.83-3.81-11.2-8.29-16.13-13.22-4.93-4.93-9.41-10.31-13.22-16.35-4.04-5.83-7.4-12.1-10.09-18.6-.22-.45-.22-.89-.44-1.12-2.69-6.5-4.7-13.22-6.05-19.72-1.34-7.17-2.24-14.56-2.24-21.96 0-7.39.67-14.79 2.24-21.96 1.35-6.94 3.59-13.89 6.5-20.84 2.92-6.5 6.28-12.77 10.09-18.59 3.81-5.83 8.29-11.2 13.22-16.35 4.93-4.93 10.31-9.41 16.13-13.22 5.82-4.04 12.1-7.39 18.59-10.08.45-.22.9-.22 1.12-.45 6.5-2.69 13.22-4.7 19.72-6.05 7.17-1.35 14.56-2.24 21.96-2.24h.22zm16.35 30.47c-5.15-1.12-10.75-1.57-16.35-1.57-5.6 0-10.98.45-16.35 1.57-5.16 1.12-9.86 2.46-14.34 4.26-.22.22-.45.22-.89.44-5.15 2.24-9.86 4.7-14.12 7.62-4.26 2.91-8.29 6.05-11.87 9.63-3.58 3.59-6.94 7.62-9.63 11.88-2.91 4.26-5.38 8.96-7.62 14.11-2.02 4.7-3.59 9.86-4.7 15.24-1.12 5.15-1.57 10.75-1.57 16.35 0 5.6.44 10.98 1.57 16.36 1.12 5.15 2.46 9.86 4.26 14.34.22.22.22.45.45.89 2.24 5.15 4.7 9.86 7.62 14.12 2.91 4.26 6.05 8.29 9.63 11.87 3.59 3.59 7.62 6.94 11.87 9.63 4.26 2.91 8.96 5.38 14.12 7.62 4.7 2.02 9.86 3.59 15.24 4.7 5.15 1.12 10.75 1.57 16.35 1.57 5.6 0 10.98-.44 16.35-1.57 5.16-1.12 9.86-2.46 14.34-4.26.22-.22.45-.22.89-.45 5.15-2.24 9.86-4.7 14.12-7.62 4.26-2.91 8.29-6.05 11.87-9.63 3.59-3.58 6.94-7.62 9.63-11.87 2.91-4.26 5.38-8.96 7.62-14.12 2.02-4.7 3.59-9.86 4.7-15.23 1.12-5.16 1.57-10.76 1.57-16.36s-.44-10.98-1.57-16.35c-1.12-5.15-2.46-9.86-4.26-14.34-.22-.22-.22-.45-.45-.9-2.24-5.15-4.7-9.86-7.62-14.11-2.91-4.26-6.05-8.29-9.63-11.88-3.59-3.58-7.62-6.94-11.87-9.63-4.26-2.91-8.96-5.38-14.12-7.62-4.7-2.02-9.86-3.58-15.24-4.7zM0 537.62h269.44v479.37H0V537.62z"/></svg>